<svg width="463" height="463" viewBox="0 0 463 463" fill="none" xmlns="http://www.w3.org/2000/svg">
<path d="M367.5 0H95.5C73.72 0 56 17.72 56 39.5V407.5C56 417.836 62.71 426.628 72 429.766V439.5C72 452.458 82.542 463 95.5 463H367.5C380.458 463 391 452.458 391 439.5V429.766C400.29 426.628 407 417.836 407 407.5V39.5C407 17.72 389.28 0 367.5 0ZM95.5 15H367.5C381.01 15 392 25.991 392 39.5V96H71V39.5C71 25.991 81.99 15 95.5 15ZM367.5 448H95.5C90.813 448 87 444.187 87 439.5V431H376V439.5C376 444.187 372.187 448 367.5 448ZM383.5 416H79.5C74.813 416 71 412.187 71 407.5V111H392V407.5C392 412.187 388.187 416 383.5 416Z" fill="#52B765"/>
<path d="M231.5 136C161.196 136 104 193.196 104 263.5C104 333.804 161.196 391 231.5 391C301.804 391 359 333.804 359 263.5C359 193.196 301.804 136 231.5 136ZM231.5 376C169.468 376 119 325.533 119 263.5C119 201.467 169.468 151 231.5 151C293.532 151 344 201.467 344 263.5C344 325.533 293.532 376 231.5 376Z" fill="#52B765"/>
<path d="M279.5 79C292.458 79 303 68.458 303 55.5C303 42.542 292.458 32 279.5 32C266.542 32 256 42.542 256 55.5C256 68.458 266.542 79 279.5 79ZM279.5 47C284.187 47 288 50.813 288 55.5C288 60.187 284.187 64 279.5 64C274.813 64 271 60.187 271 55.5C271 50.813 274.813 47 279.5 47Z" fill="#52B765"/>
<path d="M343.5 79C356.458 79 367 68.458 367 55.5C367 42.542 356.458 32 343.5 32C330.542 32 320 42.542 320 55.5C320 68.458 330.542 79 343.5 79ZM343.5 47C348.187 47 352 50.813 352 55.5C352 60.187 348.187 64 343.5 64C338.813 64 335 60.187 335 55.5C335 50.813 338.813 47 343.5 47Z" fill="#52B765"/>
<path d="M111.5 79H215.5C224.047 79 231 72.047 231 63.5V47.5C231 38.953 224.047 32 215.5 32H111.5C102.953 32 96 38.953 96 47.5V63.5C96 72.047 102.953 79 111.5 79ZM111 47.5C111 47.224 111.225 47 111.5 47H215.5C215.775 47 216 47.224 216 47.5V63.5C216 63.776 215.775 64 215.5 64H111.5C111.225 64 111 63.776 111 63.5V47.5Z" fill="#52B765"/>
<path d="M231.5 168C178.841 168 136 210.841 136 263.5C136 316.159 178.841 359 231.5 359C284.159 359 327 316.159 327 263.5C327 210.841 284.159 168 231.5 168ZM231.5 344C187.112 344 151 307.888 151 263.5C151 219.112 187.112 183 231.5 183C275.888 183 312 219.112 312 263.5C312 307.888 275.888 344 231.5 344Z" fill="#52B765"/>
<path d="M231.5 200C227.357 200 224 203.358 224 207.5C224 211.642 227.357 215 231.5 215C258.243 215 280 236.757 280 263.5C280 267.642 283.357 271 287.5 271C291.643 271 295 267.642 295 263.5C295 228.486 266.514 200 231.5 200Z" fill="#52B765"/>
</svg>
